<?xml version="1.0" standalone="no"?>
<!DOCTYPE svg PUBLIC "-//W3C//DTD SVG 20010904//EN"
 "http://www.w3.org/TR/2001/REC-SVG-20010904/DTD/svg10.dtd">
<svg version="1.0" xmlns="http://www.w3.org/2000/svg"
 width="512.000000pt" height="512.000000pt" viewBox="0 0 512.000000 512.000000"
 preserveAspectRatio="xMidYMid meet">

<g transform="translate(0.000000,512.000000) scale(0.100000,-0.100000)"
fill="#000000" stroke="none">
<path d="M0 4000 l0 -170 170 0 170 0 -2 -222 -3 -223 -167 -3 -168 -2 0
-1215 0 -1215 369 0 369 0 4 393 c5 443 5 445 85 607 80 164 234 296 418 357
71 24 95 27 220 27 124 0 149 -3 217 -26 121 -40 204 -92 293 -182 89 -91 135
-162 170 -263 39 -113 45 -180 45 -555 l0 -358 370 0 370 0 0 358 c0 375 6
442 45 555 35 101 81 172 170 263 89 90 172 142 293 182 68 23 93 26 217 26
125 0 149 -3 220 -27 115 -38 198 -91 291 -182 66 -66 89 -97 127 -175 80
-162 80 -164 85 -607 l4 -393 369 0 369 0 0 1215 0 1215 -167 2 -168 3 -3 223
-2 222 170 0 170 0 0 170 0 170 -2560 0 -2560 0 0 -170z m2390 -395 l0 -225
-855 0 -855 0 0 225 0 225 855 0 855 0 0 -225z m2050 0 l0 -225 -855 0 -855 0
0 225 0 225 855 0 855 0 0 -225z"/>
</g>
</svg>
