<?xml version="1.0" standalone="no"?>
<!DOCTYPE svg PUBLIC "-//W3C//DTD SVG 20010904//EN"
 "http://www.w3.org/TR/2001/REC-SVG-20010904/DTD/svg10.dtd">
<svg version="1.0" xmlns="http://www.w3.org/2000/svg"
 width="512.000000pt" height="512.000000pt" viewBox="0 0 512.000000 512.000000"
 preserveAspectRatio="xMidYMid meet">

<g transform="translate(0.000000,512.000000) scale(0.100000,-0.100000)"
fill="#000000" stroke="none">
<path d="M1136 4075 c-44 -23 -54 -43 -61 -130 -15 -178 -70 -361 -161 -534
-75 -142 -143 -238 -243 -343 -172 -181 -325 -265 -521 -287 -76 -8 -87 -12
-112 -40 -42 -47 -34 -113 17 -147 78 -51 359 18 528 130 30 20 57 36 61 36 4
0 5 -66 4 -147 l-3 -148 -288 -3 c-314 -3 -323 -4 -347 -61 -7 -19 -10 -94 -8
-234 l3 -207 28 -27 27 -28 510 -3 510 -3 0 -402 c0 -506 -21 -467 255 -467
172 0 200 5 234 41 21 22 21 30 21 426 l0 403 970 0 970 0 0 -403 c0 -506 -21
-467 255 -467 172 0 200 5 234 41 21 22 21 30 21 426 l0 402 510 3 510 3 27
28 28 27 3 202 c2 111 0 213 -3 226 -3 13 -18 35 -32 48 l-26 24 -284 0 c-223
0 -285 3 -289 13 -2 7 -3 75 -2 150 l3 137 40 -27 c58 -39 108 -38 146 5 30
34 38 77 19 112 -6 11 -45 46 -88 78 -299 228 -527 643 -557 1014 -12 139 -27
148 -262 148 -174 0 -215 -8 -240 -49 -7 -11 -17 -64 -22 -119 -22 -212 -124
-395 -296 -532 -322 -255 -798 -295 -1177 -99 -260 136 -421 362 -449 631 -16
162 -25 168 -266 168 -130 0 -174 -3 -197 -15z m254 -906 l0 -710 -52 3 -53 3
-3 708 -2 707 55 0 55 0 0 -711z m2448 4 l-3 -708 -52 -3 -53 -3 0 710 0 711
55 0 55 0 -2 -707z m-2033 30 c92 -69 237 -143 353 -178 l92 -29 -2 -266 -3
-265 -102 -3 -103 -3 0 203 c0 234 -7 262 -71 286 -32 12 -41 12 -71 -2 -60
-29 -63 -39 -66 -274 l-3 -213 -117 3 -117 3 -3 469 -2 469 73 -74 c40 -41
104 -98 142 -126z m1720 -730 c-3 -10 -37 -13 -120 -13 l-115 0 0 363 0 362
43 30 c23 16 76 64 117 106 l75 77 3 -457 c1 -251 0 -462 -3 -468z m-2450 0
c-3 -9 -36 -13 -115 -13 l-110 0 0 248 0 247 48 60 c62 78 111 148 148 210
l29 50 3 -395 c1 -217 0 -401 -3 -407z m3026 710 c27 -43 79 -115 114 -160
l65 -82 -2 -238 -3 -238 -115 0 -115 0 -3 404 c-1 223 0 402 4 399 3 -3 28
-41 55 -85z m-1021 -423 l0 -300 -312 2 -313 3 -3 248 -2 247 105 0 105 0 0
-161 c0 -98 4 -169 11 -182 31 -60 106 -76 156 -33 l28 24 5 193 5 192 95 32
c52 18 101 33 108 34 9 1 12 -65 12 -299z m1840 -575 l0 -75 -2360 0 -2360 0
0 75 0 75 2360 0 2360 0 0 -75z m-3530 -615 l0 -330 -55 0 -55 0 0 330 0 330
55 0 55 0 0 -330z m2450 0 l0 -330 -55 0 -55 0 0 330 0 330 55 0 55 0 0 -330z"/>
<path d="M4844 2780 c-54 -21 -72 -105 -33 -153 24 -32 73 -46 162 -48 75 -2
111 15 127 57 16 42 11 72 -18 105 -23 26 -37 32 -97 39 -86 11 -114 11 -141
0z"/>
</g>
</svg>
