<?xml version="1.0" encoding="UTF-8"?>
<svg version="1.1" xmlns="http://www.w3.org/2000/svg" width="434" height="337">
<path d="M0 0 C0.67372147 -0.00581376 1.34744293 -0.01162753 2.0415802 -0.01761746 C4.29769864 -0.03220815 6.55272751 -0.01833775 8.80883789 -0.00457001 C10.44316667 -0.00917932 12.0774913 -0.01553244 13.71180725 -0.02347898 C18.20180347 -0.04019136 22.69146001 -0.03191731 27.18145752 -0.01953411 C32.02407137 -0.01049375 36.86662632 -0.02444831 41.70922852 -0.0354538 C51.19547698 -0.05325443 60.68159895 -0.04939215 70.1678524 -0.03780323 C77.87647923 -0.02877527 85.58507057 -0.02754215 93.29370117 -0.0318985 C94.39019895 -0.03251143 95.48669672 -0.03312436 96.6164217 -0.03375587 C98.84383012 -0.03503475 101.07123853 -0.0363316 103.29864693 -0.03764623 C124.19251875 -0.04905656 145.08632042 -0.03593122 165.98018074 -0.01444477 C183.91398702 0.00342661 201.84768973 0.00032263 219.78149414 -0.01811981 C240.59982509 -0.03951852 261.41809452 -0.04795788 282.23643494 -0.03567076 C284.45571898 -0.03439654 286.67500304 -0.03313906 288.89428711 -0.0318985 C289.98626058 -0.0312814 291.07823404 -0.03066429 292.20329762 -0.03002849 C299.90402005 -0.0265726 307.60470352 -0.0324091 315.30541992 -0.04181671 C324.68809716 -0.05302696 334.07064051 -0.05001714 343.45330238 -0.02869374 C348.24189245 -0.01817023 353.03025917 -0.01408365 357.81884766 -0.02729034 C362.2008803 -0.03919313 366.58248217 -0.03268673 370.96447563 -0.01138014 C372.55119843 -0.00690509 374.13795749 -0.00920057 375.72465706 -0.01888329 C377.87962005 -0.03102691 380.03310282 -0.01859521 382.18798828 0 C383.38541153 0.00064941 384.58283478 0.00129882 385.81654358 0.00196791 C390.91119161 0.78136623 393.98388865 3.33483247 397.46899414 7.00336456 C399.86702989 12.16836465 399.84780949 16.90359336 399.09399414 22.50336456 C396.94186358 27.13872269 393.85606022 30.51670675 389.09399414 32.50336456 C385.28435175 32.98221595 381.55064211 32.88091684 377.71899414 32.75336456 C374.21274414 32.67086456 370.70649414 32.58836456 367.09399414 32.50336456 C367.09399414 43.06336456 367.09399414 53.62336456 367.09399414 64.50336456 C374.06460844 64.34584367 374.06460844 64.34584367 381.03393555 64.143013 C386.88572541 64.07645439 390.61276901 64.33927229 395.09399414 68.50336456 C399.44344693 73.70754943 399.66644171 77.66083913 399.60192871 84.14398956 C399.61128865 85.59090683 399.61128865 85.59090683 399.62083769 87.06705475 C399.6367797 90.29607406 399.62415834 93.52433978 399.61157227 96.75336456 C399.61699282 99.06961253 399.62411511 101.38585705 399.6328125 103.70209503 C399.65105643 109.99128412 399.64397371 116.2802109 399.63129616 122.5694046 C399.62117415 129.14896099 399.63055962 135.7284948 399.63684082 142.30805206 C399.64538563 154.06547159 399.63214963 165.82278072 399.61180347 177.58018112 C399.59393282 188.23692642 399.59703705 198.89349741 399.61547852 209.55023956 C399.63689264 221.93055081 399.64484838 234.31075094 399.63302946 246.69107819 C399.62679102 253.24280736 399.62596867 259.79441652 399.63917542 266.346138 C399.65072375 272.5054597 399.64272629 278.66445201 399.61959839 284.8237381 C399.61430593 287.08524783 399.61583419 289.34678525 399.62464905 291.608284 C399.63556646 294.69347771 399.62188604 297.77761341 399.60192871 300.86273956 C399.61531304 302.20778061 399.61531304 302.20778061 399.62896776 303.5799942 C399.56024993 309.05007044 398.72385848 312.1572225 395.09399414 316.50336456 C389.69102345 321.56232292 384.12656777 321.07117707 377.12524414 321.02094269 C375.32422241 321.0314566 375.32422241 321.0314566 373.48681641 321.04218292 C370.20566214 321.05674023 366.9251566 321.05337263 363.64401245 321.04066658 C360.20349814 321.03050957 356.76302586 321.03993973 353.32250977 321.04621124 C347.5457384 321.05347985 341.76917188 321.04392082 335.99243164 321.02484894 C329.32236566 321.00308146 322.65278881 321.01013341 315.98273468 321.03215456 C310.24664384 321.0503312 304.51069989 321.0528559 298.77458954 321.04239988 C295.3527373 321.03617729 291.93111465 321.03529496 288.50927734 321.04854584 C284.69342988 321.05870401 280.87852166 321.04321825 277.06274414 321.02094269 C275.93425049 321.02903961 274.80575684 321.03713654 273.64306641 321.04547882 C267.6592869 320.98076433 263.66452832 320.78288844 259.09399414 316.50336456 C255.14568223 311.9028208 254.5163996 308.0609343 254.57983398 302.18158722 C254.56914635 300.9606134 254.56914635 300.9606134 254.5582428 299.71497345 C254.53899878 297.03220915 254.54724056 294.35023737 254.55493164 291.66742706 C254.54501332 289.78617974 254.53306777 287.90494211 254.51919556 286.02371979 C254.48683692 281.0683252 254.47644536 276.11315124 254.47235107 271.15766144 C254.46360308 263.26347169 254.42755351 255.36946377 254.38017654 247.47542191 C254.36776844 244.7416324 254.36833523 242.00808053 254.37045288 239.2742691 C254.31722365 216.0834709 251.68717305 196.63418691 234.86743164 179.19477081 C222.22791905 167.38151611 207.21073993 161.97493247 190.09399414 161.50336456 C172.15764301 162.19186623 156.41235187 169.38437291 144.15649414 182.44086456 C129.2794835 200.09709697 127.8024396 219.78609576 127.81959915 241.93850327 C127.82058182 244.73918383 127.80742717 247.53949856 127.7906189 250.34012604 C127.74482121 258.28888095 127.71970224 266.2375871 127.71313477 274.18647003 C127.70812022 279.08097979 127.68389941 283.9750904 127.64780807 288.86946487 C127.63803403 290.72334523 127.63566501 292.57728054 127.64097977 294.43117905 C127.64805346 297.01508566 127.6307712 299.59779396 127.6081543 302.18158722 C127.62041298 303.31776993 127.62041298 303.31776993 127.63291931 304.47690582 C127.55249352 309.64825862 126.4547346 312.5874547 123.09399414 316.50336456 C117.69102345 321.56232292 112.12656777 321.07117707 105.12524414 321.02094269 C103.32422241 321.0314566 103.32422241 321.0314566 101.48681641 321.04218292 C98.20566214 321.05674023 94.9251566 321.05337263 91.64401245 321.04066658 C88.20349814 321.03050957 84.76302586 321.03993973 81.32250977 321.04621124 C75.5457384 321.05347985 69.76917188 321.04392082 63.99243164 321.02484894 C57.32236566 321.00308146 50.65278881 321.01013341 43.98273468 321.03215456 C38.24664384 321.0503312 32.51069989 321.0528559 26.77458954 321.04239988 C23.3527373 321.03617729 19.93111465 321.03529496 16.50927734 321.04854584 C12.69342988 321.05870401 8.87852166 321.04321825 5.06274414 321.02094269 C3.93425049 321.02903961 2.80575684 321.03713654 1.64306641 321.04547882 C-4.3407131 320.98076433 -8.33547168 320.78288844 -12.90600586 316.50336456 C-17.25413407 311.29722429 -17.47846282 307.34683447 -17.41394043 300.86273956 C-17.42330037 299.4158223 -17.42330037 299.4158223 -17.43284941 297.93967438 C-17.44879142 294.71065507 -17.43617006 291.48238935 -17.42358398 288.25336456 C-17.42900454 285.9371166 -17.43612683 283.62087208 -17.44482422 281.30463409 C-17.46306815 275.01544501 -17.45598543 268.72651823 -17.44330788 262.43732452 C-17.43318586 255.85776814 -17.44257134 249.27823432 -17.44885254 242.69867706 C-17.45739735 230.94125753 -17.44416135 219.18394841 -17.42381519 207.426548 C-17.40594454 196.76980271 -17.40904877 186.11323171 -17.42749023 175.45648956 C-17.44890436 163.07617832 -17.4568601 150.69597819 -17.44504118 138.31565094 C-17.43880274 131.76392176 -17.43798039 125.21231261 -17.45118713 118.66059113 C-17.46273547 112.50126943 -17.45473801 106.34227712 -17.43161011 100.18299103 C-17.42631765 97.92148129 -17.42784591 95.65994388 -17.43666077 93.39844513 C-17.44757818 90.31325142 -17.43389776 87.22911572 -17.41394043 84.14398956 C-17.42286332 83.24729553 -17.4317862 82.3506015 -17.44097948 81.42673492 C-17.37226633 75.95703195 -16.53721094 72.84815537 -12.90600586 68.50336456 C-7.57932401 63.55364789 -2.38771451 64.0251106 4.46899414 64.25336456 C7.97524414 64.33586456 11.48149414 64.41836456 15.09399414 64.50336456 C15.09399414 53.94336456 15.09399414 43.38336456 15.09399414 32.50336456 C8.12337984 32.66088545 8.12337984 32.66088545 1.15405273 32.86371613 C-4.89805639 32.93255318 -8.3097792 32.53979439 -12.90600586 28.50336456 C-16.53434249 24.68406284 -17.21601044 21.6205745 -17.40600586 16.50336456 C-17.21601044 11.38615462 -16.53434249 8.32266628 -12.90600586 4.50336456 C-8.4676659 1.03218635 -5.61524053 0.00304536 0 0 Z M47.09399414 32.50336456 C47.09399414 43.06336456 47.09399414 53.62336456 47.09399414 64.50336456 C57.65399414 64.50336456 68.21399414 64.50336456 79.09399414 64.50336456 C79.09399414 53.94336456 79.09399414 43.38336456 79.09399414 32.50336456 C68.53399414 32.50336456 57.97399414 32.50336456 47.09399414 32.50336456 Z M111.09399414 32.50336456 C111.09399414 43.06336456 111.09399414 53.62336456 111.09399414 64.50336456 C121.65399414 64.50336456 132.21399414 64.50336456 143.09399414 64.50336456 C143.09399414 53.94336456 143.09399414 43.38336456 143.09399414 32.50336456 C132.53399414 32.50336456 121.97399414 32.50336456 111.09399414 32.50336456 Z M175.09399414 32.50336456 C175.09399414 43.06336456 175.09399414 53.62336456 175.09399414 64.50336456 C185.65399414 64.50336456 196.21399414 64.50336456 207.09399414 64.50336456 C207.09399414 53.94336456 207.09399414 43.38336456 207.09399414 32.50336456 C196.53399414 32.50336456 185.97399414 32.50336456 175.09399414 32.50336456 Z M239.09399414 32.50336456 C239.09399414 43.06336456 239.09399414 53.62336456 239.09399414 64.50336456 C249.65399414 64.50336456 260.21399414 64.50336456 271.09399414 64.50336456 C271.09399414 53.94336456 271.09399414 43.38336456 271.09399414 32.50336456 C260.53399414 32.50336456 249.97399414 32.50336456 239.09399414 32.50336456 Z M303.09399414 32.50336456 C303.09399414 43.06336456 303.09399414 53.62336456 303.09399414 64.50336456 C313.65399414 64.50336456 324.21399414 64.50336456 335.09399414 64.50336456 C335.09399414 53.94336456 335.09399414 43.38336456 335.09399414 32.50336456 C324.53399414 32.50336456 313.97399414 32.50336456 303.09399414 32.50336456 Z M15.09399414 96.50336456 C15.09399414 159.86336456 15.09399414 223.22336456 15.09399414 288.50336456 C41.49399414 288.50336456 67.89399414 288.50336456 95.09399414 288.50336456 C95.26416075 263.59930256 95.26416075 263.59930256 95.3918457 238.69501495 C95.43725586 233.82062531 95.43725586 233.82062531 95.46356201 231.52117157 C95.47794357 229.95363417 95.48493856 228.38601604 95.48553467 226.81841278 C95.51538706 197.80206842 105.62693412 174.00455963 126.20727539 153.38617706 C146.42190237 134.39107968 171.53074836 128.44360491 198.39086914 129.12445831 C224.36700245 130.28242177 246.61120255 143.01511165 264.21899414 161.75336456 C280.92321986 181.18549811 286.69388757 204.29184926 286.70336914 229.22602081 C286.71742054 230.75757256 286.73321161 232.28910932 286.75073242 233.82062531 C286.80273091 239.40221609 286.82149388 244.98407692 286.84399414 250.56586456 C286.92649414 263.08523956 287.00899414 275.60461456 287.09399414 288.50336456 C313.49399414 288.50336456 339.89399414 288.50336456 367.09399414 288.50336456 C367.09399414 225.14336456 367.09399414 161.78336456 367.09399414 96.50336456 C250.93399414 96.50336456 134.77399414 96.50336456 15.09399414 96.50336456 Z " fill="#000000" transform="translate(28.906005859375,8.496635437011719)"/>
</svg>
